<svg version="1.1" xmlns="http://www.w3.org/2000/svg" xmlns:xlink="http://www.w3.org/1999/xlink" width="1560" height="804"><defs/><g><path fill="none" stroke="#02063B" paint-order="fill stroke markers" d=" M 20 484.9176342235687 L 21 488.6658755930136 L 22 492.3571405473353 L 23 495.9890023523328 L 24 499.55907332699024 L 25 503.0650064132011 L 26 506.50449671878556 L 27 509.87528303278685 L 28 513.1751493120507 L 29 516.4019261381102 L 30 519.5534921434177 L 31 522.627775405988 L 32 525.622754811534 L 33 528.5364613822 L 34 531.366979571019 L 35 534.112448521244 L 36 536.7710632897237 L 37 539.3410760335188 L 38 541.8207971589809 L 39 544.2085964325345 L 40 546.5029040524357 L 41 548.7022116808009 L 42 550.8050734352278 L 43 552.8101068393555 L 44 554.7159937317421 L 45 556.5214811324571 L 46 558.2253820668242 L 47 559.8265763457688 L 48 561.3240113022601 L 49 562.7167024833622 L 50 564.0037342974381 L 51 565.1842606160848 L 52 566.2575053303999 L 53 567.2227628612155 L 54 568.0793986229651 L 55 568.826849440876 L 56 569.4646239212158 L 57 569.9923027743472 L 58 570.40953909038 L 59 570.7160585672386 L 60 570.911659690996 L 61 570.996213868353 L 62 570.9696655111807 L 63 570.8320320730636 L 64 570.5834040378267 L 65 570.2239448600483 L 66 569.7538908576008 L 67 569.1735510562893 L 68 568.4833069866896 L 69 567.6836124333206 L 70 566.7749931363139 L 71 565.7580464457787 L 72 564.6334409290885 L 73 563.4019159313466 L 74 562.0642810893222 L 75 560.6214157991736 L 76 559.07426863831 L 77 557.4238567417718 L 78 555.6712651335401 L 79 553.817646013213 L 80 551.8642179985189 L 81 549.8122653241664 L 82 547.6631369975545 L 83 545.4182459118988 L 84 543.0790679173601 L 85 540.6471408507807 L 86 538.1240635246706 L 87 535.5114946761064 L 88 532.8111518762341 L 89 530.0248104010927 L 90 527.1543020645013 L 91 524.2015140137769 L 92 521.1683874890742 L 93 518.0569165471638 L 94 514.8691467504867 L 95 511.60717382234816 L 96 508.27314226913415 L 97 504.86924397045743 L 98 501.39771673815767 L 99 497.86084284510565 L 100 494.2609475247775 L 101 490.6003974425855 L 102 486.8815991399697 L 103 483.1069974522749 L 104 479.2790739014522 L 105 475.400345064641 L 106 471.4733609197057 L 107 467.5007031688134 L 108 463.484983541155 L 109 459.42884207592664 L 110 455.3349453866983 L 111 451.20598490831276 L 112 447.0446751274654 L 113 442.85375179812974 L 114 438.6359701430014 L 115 434.3941030421421 L 116 430.13093921001655 L 117 425.84928136211755 L 118 421.5519443723882 L 119 417.2417534226497 L 120 412.9215421452531 L 121 408.5941507601753 L 122 404.2624242077836 L 123 399.92921027849803 L 124 395.597357740579 L 125 391.26971446727254 L 126 386.94912556454415 L 127 382.6384315006313 L 128 378.34046623864555 L 129 374.05805537345066 L 130 369.794014274043 L 131 365.55114623265405 L 132 361.3322406217928 L 133 357.1400710604389 L 134 352.9773935905936 L 135 348.8469448653849 L 136 344.75144034992076 L 137 340.69357253607086 L 138 336.676009172352 L 139 332.70139151008044 L 140 328.77233256694456 L 141 324.8914154091379 L 142 321.0611914531843 L 143 317.28417878856976 L 144 313.56286052228455 L 145 309.89968314636377 L 146 306.29705492949927 L 147 302.7573443337807 L 148 299.2828784576069 L 149 295.87594150579 L 150 292.53877328786007 L 151 289.27356774555494 L 152 286.08247151046606 L 153 282.9675824927863 L 154 279.9309485020891 L 155 276.97456590104497 L 156 274.10037829296016 L 157 271.3102752440009 L 158 268.6060910409436 L 159 265.98960348526623 L 160 263.4625327243753 L 161 261.0265401207359 L 162 258.6832271596487 L 163 256.4341343963913 L 164 254.28074044341702 L 165 252.22446099827627 L 166 250.2666479129002 L 167 248.40858830485746 L 168 246.65150371116977 L 169 244.99654928524123 L 170 243.4448130374305 L 171 241.99731511976404 L 172 240.65500715526173 L 173 239.41877161231477 L 174 238.289421224528 L 175 237.26769845640743 L 176 236.3542750152448 L 177 235.54975140951947 L 178 234.85465655410852 L 179 234.2694474225642 L 180 233.7945087466877 L 181 233.4301527635962 L 182 233.1766190104501 L 183 233.03407416697507 L 184 233.00261194588236 L 185 233.08225303125968 L 186 233.27294506497284 L 187 233.57456268108746 L 188 233.98690758828772 L 189 234.50970870023843 L 190 235.14262231380405 L 191 235.88523233500837 L 192 236.7370505525853 L 193 237.69751695894197 L 194 238.76600011832238 L 195 239.9417975819296 L 196 241.22413634973418 L 197 242.61217337866455 L 198 244.10499613684547 L 199 245.70162320352068 L 200 247.4010049142643 L 201 249.2020240510577 L 202 251.10349657677807 L 203 253.10417241361543 L 204 255.2027362649062 L 205 257.397808479844 L 206 259.6879459604979 L 207 262.07164311054305 L 208 264.54733282507897 L 209 267.1133875208852 L 210 269.76812020643763 L 211 272.50978559097996 L 212 275.3365812319245 L 213 278.24664871982463 L 214 281.23807490014167 L 215 284.30889313100323 L 216 287.4570845761246 L 217 290.6805795320448 L 218 293.97725878880374 L 219 297.3449550231664 L 220 300.78145422347774 L 221 304.2844971452118 L 222 307.8517807962586 L 223 311.4809599509711 L 224 315.169648691978 L 225 318.9154219787484 L 226 322.71581724187655 L 227 326.5683360020399 L 228 330.47044551256465 L 229 334.4195804245195 L 230 338.41314447324345 L 231 342.4485121851978 L 232 346.52303060402176 L 233 350.6340210346549 L 234 354.77878080438154 L 235 358.9545850396386 L 236 363.15868845741875 L 237 367.3883271700914 L 238 371.6407205024544 L 239 375.9130728198237 L 240 380.2025753659551 L 241 384.5064081095958 L 242 388.8217415984459 L 243 393.1457388193145 L 244 397.4755570632465 L 245 401.80834979439396 L 246 406.1412685214031 L 247 410.4714646700872 L 248 414.7960914561537 L 249 419.1123057567552 L 250 423.4172699796316 L 251 427.70815392861925 L 252 431.98213666429467 L 253 436.2364083585345 L 254 440.46817214176997 L 255 444.6746459417222 L 256 448.8530643124092 L 257 453.0006802522225 L 258 457.1147670098781 L 259 461.19261987705414 L 260 465.2315579665362 L 261 469.22892597470377 L 262 473.182095927196 L 263 477.0884689066105 L 264 480.94547676109994 L 265 484.75058379274236 L 266 488.50128842457514 L 267 492.1951248451975 L 268 495.82966462985894 L 269 499.40251833696993 L 270 502.9113370789826 L 271 506.3538140666115 L 272 509.727686125377 L 273 513.0307351834754 L 274 516.2607897299974 L 275 519.4157262425366 L 276 522.4934705832479 L 277 525.491999362441 L 278 528.4093412688087 L 279 531.2435783654194 L 280 533.9928473506188 L 281 536.6553407830129 L 282 539.2293082697274 L 283 541.7130576171626 L 284 544.104955943484 L 285 546.4034307521234 L 286 548.6069709655782 L 287 550.7141279188337 L 288 552.7235163117532 L 289 554.633815119811 L 290 556.4437684625676 L 291 558.1521864293196 L 292 559.7579458613773 L 293 561.2599910904585 L 294 562.6573346327133 L 295 563.9490578379209 L 296 565.1343114934352 L 297 566.2123163824784 L 298 567.1823637964195 L 299 568.043816000697 L 300 568.7961066540832 L 301 569.4387411810112 L 302 569.9712970967215 L 303 570.3934242850155 L 304 570.7048452284303 L 305 570.905355190686 L 306 570.9948223512852 L 307 570.9731878921746 L 308 570.8404660364138 L 309 570.596744038825 L 310 570.2421821286289 L 311 569.7770134041059 L 312 569.2015436793515 L 313 568.516151283226 L 314 567.7212868106308 L 315 566.8174728262761 L 316 565.8053035211328 L 317 564.6854443217962 L 318 563.4586314530164 L 319 562.1256714536856 L 320 560.6874406465981 L 321 559.1448845623327 L 322 557.4990173176358 L 323 555.7509209487156 L 324 553.9017446998819 L 325 551.9527042680033 L 326 549.9050810032768 L 327 547.7602210668338 L 328 545.5195345457387 L 329 543.1844945259614 L 330 540.7566361239313 L 331 538.237555477312 L 332 535.6289086956582 L 333 532.9324107716465 L 334 530.1498344535937 L 335 527.2830090800064 L 336 524.3338193769251 L 337 521.3042042188567 L 338 518.1961553541074 L 339 515.011716095355 L 340 511.752979976322 L 341 508.4220893754316 L 342 505.0212341073517 L 343 501.5526499833545 L 344 498.0186173414344 L 345 494.4214595471545 L 346 490.76354146620565 L 347 487.04726790968147 L 348 483.2750820530928 L 349 479.4494638301599 L 350 475.57292830243944 L 351 471.6480240058569 L 352 467.6773312752325 L 353 463.6634605479017 L 354 459.6090506475449 L 355 455.5167670493563 L 356 451.3893001276901 L 357 447.2293633873385 L 358 443.03969167960236 L 359 438.8230394043283 L 360 434.5821786990945 L 361 430.3198976167342 L 362 426.0389982923981 L 363 421.7422951013558 L 364 417.43261280875265 L 365 413.1127847125352 L 366 408.7856507807669 L 367 404.45405578455865 L 368 400.12084742784185 L 369 395.78887447521345 L 370 391.46098487908336 L 371 387.140023907356 L 372 382.8288322728768 L 373 378.53024426587314 L 374 374.2470858906178 L 375 369.9821730075398 L 376 365.738309482004 L 377 361.5182853409766 L 378 357.3248749387885 L 379 353.160835133202 L 380 349.0289034729804 L 381 344.9317963981516 L 382 340.87220745415027 L 383 336.85280552100903 L 384 332.8762330587679 L 385 328.94510437025167 L 386 325.06200388235885 L 387 321.22948444699153 L 388 317.4500656627441 L 389 313.72623221845276 L 390 310.06043225969654 L 391 306.45507577932165 L 392 302.9125330330499 L 393 299.43513298120985 L 394 296.02516175761764 L 395 292.6848611666129 L 396 289.4164272092376 L 397 286.22200863952764 L 398 283.1037055518658 L 399 280.06356800032444 L 400 277.1035946509064 L 401 274.22573146757037 L 402 271.43187043290175 L 403 268.72384830427507 L 404 266.1034454063211 L 405 263.57238446049485 L 406 261.13232945251343 L 407 258.7848845384084 L 408 256.53159298991136 L 409 254.3739361798671 L 410 252.31333260833983 L 411 250.35113697005448 L 412 248.4886392637848 L 413 246.7270639442744 L 414 245.0675691172481 L 415 243.51124577804308 L 416 242.05911709435975 L 417 240.71213773360478 L 418 239.47119323526758 L 419 238.33709942874344 L 420 237.31060189698601 L 421 236.3923754863417 L 422 235.58302386288773 L 423 234.88307911556637 L 424 234.2930014063758 L 425 233.81317866784752 L 426 233.4439263480094 L 427 233.18548720300177 L 428 233.03803113748327 L 429 233.00165509293112 L 430 233.07638298390916 L 431 233.2621656823458 L 432 233.5588810498322 L 433 233.96633401791914 L 434 234.48425671636016 L 435 235.11230864921654 L 436 235.85007691870814 L 437 236.69707649666327 L 438 237.65275054338886 L 439 238.7164707737516 L 440 239.88753787022864 L 441 241.1651819426578 L 442 242.54856303438308 L 443 244.03677167446432 L 444 245.62882947558717 L 445 247.32368977728052 L 446 249.1202383340185 L 447 251.01729404775466 L 448 253.01360974440672 L 449 255.10787299378146 L 450 257.29870697240074 L 451 259.58467136866113 L 452 261.96426332973266 L 453 264.4359184495736 L 454 266.9980117974116 L 455 269.6488589860163 L 456 272.386717279059 L 457 275.2097867368335 L 458 278.11621139958356 L 459 281.1040805076594 L 460 284.1714297577005 L 461 287.31624259402105 L 462 290.53645153434616 L 463 293.82993952902825 L 464 297.1945413528515 L 465 300.6280450285074 L 466 304.12819328080644 L 467 307.69268502067 L 468 311.3191768579265 L 469 315.0052846419175 L 470 318.7485850289007 L 471 322.5466170752196 L 472 326.3968838551922 L 473 330.2968541026552 L 474 334.243963875085 L 475 338.2356182392003 L 476 342.2691929769391 L 477 346.3420363106888 L 478 350.451470646634 L 479 354.5947943350758 L 480 358.7692834465688 L 481 362.9721935627026 L 482 367.20076158035414 L 483 371.4522075282245 L 484 375.7237363944645 L 485 380.01253996418876 L 486 384.3157986656697 L 487 388.6306834239977 L 488 392.95435752098916 L 489 397.283978460119 L 490 401.6166998352526 L 491 405.9496732019475 L 492 410.2800499500955 L 493 414.6049831766731 L 494 418.9216295573708 L 495 423.2271512158681 L 496 427.51871758952836 L 497 431.79350729028425 L 498 436.0487099594928 L 499 440.28152811553724 L 500 444.48917899296674 L 501 448.66889637195777 L 502 452.8179323968999 L 503 456.9335593829079 L 504 461.0130716090733 L 505 465.0537870972759 L 506 469.0530493753868 L 507 473.0082292237023 L 508 476.916726403462 L 509 480.77597136631357 L 510 484.5834269436016 L 511 488.33659001436797 L 512 492.0329931509698 L 513 495.67020624123035 L 514 499.24583808605894 L 515 502.7575379714874 L 516 506.20299721409106 L 517 509.5799506787781 L 518 512.8861782679475 L 519 516.1195063810405 L 520 519.2778093435224 L 521 522.3590108043561 L 522 525.3610851010494 L 523 528.2820585913796 L 524 531.1200109509167 L 525 533.8730764354951 L 526 536.539445107803 L 527 539.1173640272818 L 528 541.6051384025562 L 529 544.0011327056336 L 530 546.303771747143 L 531 548.5115417119064 L 532 550.6229911541595 L 533 552.6367319517715 L 534 554.5514402188314 L 535 556.3658571760066 L 536 558.0787899780961 L 537 559.6891124982395 L 538 561.1957660682612 L 539 562.597760174667 L 540 563.8941731098339 L 541 565.0841525779642 L 542 566.1669162554075 L 543 567.1417523049804 L 544 568.0080198439474 L 545 568.7651493653534 L 546 569.4126431124331 L 547 569.9500754058486 L 548 570.3770929235428 L 549 570.6934149330224 L 550 570.8988334759183 L 551 570.9932135047036 L 552 570.976492971477 L 553 570.8486828687546 L 554 570.6098672222435 L 555 570.2602030356007 L 556 569.7999201872151 L 557 569.2293212790794 L 558 568.5487814378514 L 559 567.758748068236 L 560 566.8597405588497 L 561 565.8523499407611 L 562 564.7372384989314 L 563 563.5151393368108 L 564 562.1868558943772 L 565 560.7532614199341 L 566 559.2152983960138 L 567 557.5739779197648 L 568 555.8303790382305 L 569 553.9856480389547 L 570 552.0409976963829 L 571 549.997706474552 L 572 547.8571176865953 L 573 545.6206386116125 L 574 543.2897395694881 L 575 540.8659529542645 L 576 538.3508722267059 L 577 535.7461508667157 L 578 533.0535012862954 L 579 530.2746937037604 L 580 527.4115549799513 L 581 524.4659674172091 L 582 521.4398675218989 L 583 518.3352447313015 L 584 515.1541401057036 L 585 511.89864498655277 L 586 508.5708996215539 L 587 505.1730917576149 L 588 501.7074552025641 L 589 498.17626835658723 L 590 494.5818527143466 L 591 490.92657133877066 L 592 487.21282730751375 L 593 483.44306213311063 L 594 479.61975415786173 L 595 475.7454169245062 L 596 471.82259752375376 L 597 467.8538749197593 L 598 463.84185825464533 L 599 459.7891851331835 L 600 455.69851988876377 L 601 451.57255183179245 L 602 447.41399348166874 L 603 443.2255787835037 L 604 439.0100613107531 L 605 434.77021245494603 L 606 430.50881960369975 L 607 426.22868430821813 L 608 421.9326204414784 L 609 417.6234523483174 L 610 413.30401298863353 L 611 408.9771420749246 L 612 404.64568420538654 L 613 400.31248699380023 L 614 395.9803991974354 L 615 391.652268844203 L 616 387.33094136028797 L 617 383.01925769949025 L 618 378.72005247550817 L 619 374.4361520983891 L 620 370.1703729163735 L 621 365.9255193643538 L 622 361.70438212016563 L 623 357.50973626992294 L 624 353.34433948360396 L 625 349.2109302020867 L 626 345.1122258368261 L 627 341.05092098335695 L 628 337.02968564979585 L 629 333.05116350150837 L 630 329.11797012309387 L 631 325.232691298832 L 632 321.39788131272024 L 633 317.61606126922095 L 634 313.8897174358212 L 635 310.22129960849526 L 636 306.61321950114484 L 637 303.0678491600754 L 638 299.5875194045502 L 639 296.1745182944495 L 640 292.83108962603944 L 641 289.55943145684205 L 642 286.3616946605744 L 643 283.2399815131083 L 644 280.1963443103783 L 645 277.2327840191506 L 646 274.3512489615323 L 647 271.5536335340955 L 648 268.8417769624508 L 649 266.217462092092 L 650 263.6824142163073 L 651 261.2382999419259 L 652 258.8867260936473 L 653 256.62923865767266 L 654 254.46732176533274 L 655 252.4023967173816 L 656 250.43582104959583 L 657 248.5688876402952 L 658 246.80282386037058 L 659 245.13879076637818 L 660 243.57788233723068 L 661 242.12112475498665 L 662 240.7694757302118 L 663 239.5238238723549 L 664 238.38498810555262 L 665 237.35371713024745 L 666 236.43068893097248 L 667 235.61651033062643 L 668 234.9117165915326 L 669 234.31677106354329 L 670 233.83206487942144 L 671 233.45791669769991 L 672 233.19457249318677 L 673 233.04220539525522 L 674 233.00091557402368 L 675 233.0707301745014 L 676 233.2516032987426 L 677 233.54341603602103 L 678 233.94597654100485 L 679 234.459020159881 L 680 235.08220960434525 L 681 235.8151351733447 L 682 236.65731502242565 L 683 237.60819548051117 L 684 238.6671514138982 L 685 239.83348663723777 L 686 241.1064343712248 L 687 242.48515774669914 L 688 243.96875035482523 L 689 245.55623684298894 L 690 247.24657355601994 L 691 249.03864922231799 L 692 250.93128568443186 L 693 252.92323867361097 L 694 255.0131986278202 L 695 257.19979155268027 L 696 259.4815799247676 L 697 261.85706363667964 L 698 264.32468098324534 L 699 266.88280968823017 L 700 269.52976797086365 L 701 272.2638156514858 L 702 275.0831552955867 L 703 277.9859333954873 L 704 280.9702415888833 L 705 284.0341179134533 L 706 287.17554809670344 L 707 290.3924668802033 L 708 293.6827593773407 L 709 297.04426246370343 L 710 300.4747661991741 L 711 303.97201528080245 L 712 307.5337105255005 L 713 311.1575103815859 L 714 314.84103246817904 L 715 318.5818551414427 L 716 322.37751908663427 L 717 326.22552893492343 L 718 330.12335490391285 L 719 334.0684344607838 L 720 338.0581740069716 L 721 342.089950583266 L 722 346.16111359421313 L 723 350.26898655068436 L 724 354.4108688294738 L 725 358.58403744875625 L 726 362.7857488582472 L 727 367.0132407428849 L 728 371.26373383884834 L 729 375.5344337607182 L 730 379.8225328385788 L 731 384.1252119638539 L 732 388.43964244266266 L 733 392.7629878554764 L 734 397.0924059218559 L 735 401.42505036904026 L 736 405.75807280316155 L 737 410.0886245818532 L 738 414.4138586870223 L 739 418.7309315965536 L 740 423.03700515371565 L 741 427.32924843303897 L 742 431.6048396014408 L 743 435.8609677733721 L 744 440.094834858767 L 745 444.3036574025807 L 746 448.48466841470554 L 747 452.6351191890628 L 748 456.75228111067395 L 749 460.83344744952365 L 750 464.8759351400348 L 751 468.8770865449863 L 752 472.834271202713 L 753 476.7448875564402 L 754 480.6063646646154 L 755 484.4161638911121 L 756 488.17178057419613 L 757 491.87074567315545 L 758 495.5106273915124 L 759 499.0890327757502 L 760 502.6036092885032 L 761 506.0520463551773 L 762 509.43207688297986 L 763 512.741478751369 L 764 515.9780762729316 L 765 519.1397416237381 L 766 522.2243962422292 L 767 525.2300121957168 L 768 528.1546135136001 L 769 530.9962774864204 L 770 533.7531359299003 L 771 536.4233764131374 L 772 539.0052434501436 L 773 541.4970396539476 L 774 543.8971268525013 L 775 546.2039271656574 L 776 548.4159240425087 L 777 550.5316632584086 L 778 552.5497538710164 L 779 554.4688691347392 L 780 556.2877473729691 L 781 558.0051928075425 L 782 559.6200763448761 L 783 561.1313363182624 L 784 562.5379791858369 L 785 563.8390801837593 L 786 565.0337839341768 L 787 566.121305007572 L 788 567.1009284391253 L 789 567.9720101987504 L 790 568.7339776144979 L 791 569.3863297490441 L 792 569.9286377290199 L 793 570.3605450269644 L 794 570.6817676957145 L 795 570.8920945550797 L 796 570.9913873306772 L 797 570.9795807448373 L 798 570.8566825595187 L 799 570.6227735712054 L 800 570.2780075577886 L 801 569.8226111774702 L 802 569.2568838197507 L 803 568.5811974086031 L 804 567.7959961579604 L 805 566.9017962796778 L 806 565.8991856441612 L 807 564.7888233938861 L 808 563.5714395100599 L 809 562.2478343327132 L 810 560.8188780345354 L 811 559.2855100488005 L 812 557.6487384517585 L 813 555.9096392999005 L 814 554.0693559225303 L 815 552.1290981701105 L 816 550.0901416188741 L 817 547.9538267322284 L 818 545.7215579794988 L 819 543.3948029125935 L 820 540.9750912011971 L 821 538.4640136271255 L 822 535.8632210385042 L 823 533.1744232644575 L 824 530.3993879910222 L 825 527.5399395990248 L 826 524.597957964685 L 827 521.5753772237365 L 828 518.4741844998756 L 829 515.2964185983737 L 830 512.0441686657136 L 831 508.7195728161297 L 832 505.3248167259559 L 833 501.86213219670475 L 834 498.3337956878227 L 835 494.7421268200862 L 836 491.0894868506219 L 837 487.3782771205548 L 838 483.6109374763037 L 839 479.78994466556156 L 840 475.9178107090189 L 841 471.9970812488927 L 842 468.0303338753564 L 843 464.0201764319644 L 844 459.96924530118713 L 845 455.8802036711844 L 846 451.7557397849559 L 847 447.5985651730196 L 848 443.41141287078085 L 849 439.1970356217633 L 850 434.95820406788306 L 851 430.6977049279566 L 852 426.4183391656385 L 853 422.12292014799465 L 854 417.81427179592134 L 855 413.49522672762555 L 856 409.1686243963876 L 857 404.8373092238303 L 858 400.5041287299217 L 859 396.1719316609411 L 860 391.84356611663816 L 861 387.5218776778182 L 862 383.20970753558254 L 863 378.9098906234552 L 864 374.6252537536234 L 865 370.35861375851704 L 866 366.11277563894976 L 867 361.89053072003753 L 868 357.6946548161087 L 869 353.52790640581105 L 870 349.3930248186155 L 871 345.29272843390936 L 872 341.22971289386265 L 873 337.2066493312421 L 874 333.22618261333884 L 875 329.29092960316325 L 876 325.4034774390508 L 877 321.5663818338096 L 878 317.7821653945272 L 879 314.053315964145 L 880 310.3822849858818 L 881 306.7714858915934 L 882 303.22329251511803 L 883 299.74003753165664 L 884 296.32401092421065 L 885 292.97745847808756 L 886 289.70258030446246 L 887 286.50152939396776 L 888 283.3764102012607 L 889 280.32927726149944 L 890 277.3621338396384 L 891 274.47693061342903 L 892 271.6755643909935 L 893 268.95987686381307 L 894 266.3316533959521 L 895 263.79262185031314 L 896 261.3444514526941 L 897 258.98875169439617 L 898 256.72707127410166 L 899 254.56089707971913 L 900 252.49165321086426 L 901 250.5207000426196 L 902 248.64933333118836 L 903 246.87878336203025 L 904 245.21021414103973 L 905 243.64472262929803 L 906 242.18333802190227 L 907 240.82702107134557 L 908 239.57666345589323 L 909 238.43308719337023 L 910 237.397044100745 L 911 236.46921529986548 L 912 235.65021076967153 L 913 234.94056894517905 L 914 234.34075636349854 L 915 233.85116735712154 L 916 233.47212379467595 L 917 233.2038748693213 L 918 233.04659693492277 L 919 233.00039339011107 L 920 233.06529461030604 L 921 233.24125792774666 L 922 233.52816765954216 L 923 233.92583518372493 L 924 234.43399906325547 L 925 235.05232521789802 L 926 235.78040714385358 L 927 236.61776618100632 L 928 237.563851827607 L 929 238.61804210218747 L 930 239.77964395246744 L 931 241.04789371098516 L 932 242.42195759715258 L 933 243.90093226540435 L 934 245.48384539908088 L 935 247.16965634965482 L 936 248.95725682088056 L 937 250.84547159741734 L 938 252.83305931744638 L 939 254.91871328877474 L 940 257.10106234788896 L 941 259.378671761394 L 942 261.750044169244 L 943 264.2136205691468 L 944 266.7677813414921 L 945 269.41084731413196 L 946 272.14108086631313 L 947 274.9566870710334 L 948 277.85581487507443 L 949 280.8365583159323 L 950 283.89695777484684 L 951 287.03500126510687 L 952 290.24862575478267 L 953 293.53571852301684 L 954 296.8941185489829 L 955 300.32161793259644 L 956 303.81596334604734 L 957 307.3748575151941 L 958 310.99596072985514 L 959 314.67689238199364 L 960 318.41523253079174 L 961 322.20852349358336 L 962 326.054271461599 L 963 329.9499481394606 L 964 333.8929924073496 L 965 337.8808120047537 L 966 341.91078523468707 L 967 345.98026268726255 L 968 350.08656898148274 L 969 354.227004524106 L 970 358.3988472844292 L 971 362.59935458382245 L 972 366.8257648988374 L 973 371.0752996767052 L 974 375.3451651620299 L 975 379.63255423347636 L 976 383.9346482492451 L 977 388.2486189001214 L 978 392.57163006887976 L 979 396.9008396948216 L 980 401.2334016422203 L 981 405.56646757144534 L 982 409.8971888115355 L 983 414.22271823298934 L 984 418.54021211954307 L 985 422.8468320377038 L 986 427.13974670281016 L 987 431.41613384039283 L 988 435.67318204161165 L 989 439.9080926115495 L 990 444.11808140914746 L 991 448.3003806775722 L 992 452.45224086381154 L 993 456.57093242630265 L 994 460.65374762940434 L 995 464.6980023235335 L 996 468.7010377097934 L 997 472.66022208794095 L 998 476.57295258653284 L 999 480.4366568741224 L 1000 484.24879485037707 L 1001 488.00686031600736 L 1002 491.7083826204076 L 1003 495.35092828592616 L 1004 498.93210260769774 L 1005 502.4495512279848 L 1006 505.90096168399396 L 1007 509.2840649281496 L 1008 512.5966368198251 L 1009 515.8364995875513 L 1010 519.0015232607401 L 1011 522.0896270699832 L 1012 525.0987808150044 L 1013 528.0270061993659 L 1014 530.8723781310529 L 1015 533.6330259880788 L 1016 536.3071348482817 L 1017 538.8929466825011 L 1018 541.3887615103527 L 1019 543.7929385178398 L 1020 546.1038971360676 L 1021 548.3201180803505 L 1022 550.4401443490293 L 1023 552.4625821813426 L 1024 554.3861019737212 L 1025 556.2094391539052 L 1026 557.9313950123056 L 1027 559.5508374900685 L 1028 561.0667019233194 L 1029 562.4779917431019 L 1030 563.7837791305471 L 1031 564.9832056268475 L 1032 566.0754826976287 L 1033 567.0598922513537 L 1034 567.9357871114149 L 1035 568.7025914416042 L 1036 569.3598011246836 L 1037 569.9069840938047 L 1038 570.343780616561 L 1039 570.6699035314853 L 1040 570.8851384368365 L 1041 570.9893438315545 L 1042 570.9824512082849 L 1043 570.8644650984188 L 1044 570.6354630691129 L 1045 570.2955956722958 L 1046 569.8450863456901 L 1047 569.2842312659194 L 1048 568.6133991537937 L 1049 567.8330310319028 L 1050 566.9436399346764 L 1051 565.9458105711019 L 1052 564.8401989403216 L 1053 563.627531900361 L 1054 562.3086066902745 L 1055 560.8842904060182 L 1056 559.3555194303995 L 1057 557.7232988174738 L 1058 555.9887016317962 L 1059 554.1528682429598 L 1060 552.2170055758884 L 1061 550.1823863173707 L 1062 548.0503480793647 L 1063 545.8222925196144 L 1064 543.499684420165 L 1065 541.0840507243762 L 1066 538.5769795330696 L 1067 535.9801190604696 L 1068 533.295176550625 L 1069 530.5239171550207 L 1070 527.6681627721222 L 1071 524.729790849611 L 1072 521.7107331501019 L 1073 518.6129744811509 L 1074 515.4385513903928 L 1075 512.1895508266587 L 1076 508.8681087679626 L 1077 505.47640881725397 L 1078 502.0166807668592 L 1079 498.4911991325582 L 1080 494.90228165825806 L 1081 491.2522877922474 L 1082 487.54361713603356 L 1083 483.7787078667817 L 1084 479.96003513439314 L 1085 476.09010943427717 L 1086 472.17147495688573 L 1087 468.20670791509576 L 1088 464.1984148505397 L 1089 460.14923091999646 L 1090 456.0618181629709 L 1091 451.9388637515988 L 1092 447.78307822402985 L 1093 443.5971937024491 L 1094 439.38396209690785 L 1095 435.14615329614634 L 1096 430.8865533465963 L 1097 426.60796262076104 L 1098 422.31319397617716 L 1099 418.0050709061687 L 1100 413.6864256836085 L 1101 409.36009749890775 L 1102 405.0289305934582 L 1103 400.69577238975324 L 1104 396.36347161941785 L 1105 392.03487645037785 L 1106 387.7128326143999 L 1107 383.40018153623254 L 1108 379.0997584655797 L 1109 374.8143906131332 L 1110 370.54689529189 L 1111 366.30007806497747 L 1112 362.0767309012018 L 1113 357.8796303395373 L 1114 353.711535663753 L 1115 349.57518708839007 L 1116 345.47330395727226 L 1117 341.4085829557381 L 1118 337.38369633776955 L 1119 333.4012901691819 L 1120 329.46398258803123 L 1121 325.57436208338174 L 1122 321.7349857935653 L 1123 317.9483778250518 L 1124 314.2170275930355 L 1125 310.54338818482813 L 1126 306.9298747471356 L 1127 303.3788628982766 L 1128 299.89268716638963 L 1129 296.4736394546526 L 1130 293.12396753452583 L 1131 289.84587356800847 L 1132 286.64151265987937 L 1133 283.5129914408747 L 1134 280.4623666827339 L 1135 277.49164394602417 L 1136 274.60277626163224 L 1137 271.79766284679084 L 1138 269.0781478564838 L 1139 266.4460191710499 L 1140 263.9030072207837 L 1141 261.4507838483057 L 1142 259.09096120944855 L 1143 256.8250907133843 L 1144 254.65466200268696 L 1145 252.58110197400262 L 1146 250.60577383997025 L 1147 248.72997623301004 L 1148 246.95494235156843 L 1149 245.28183914938126 L 1150 243.71176656828757 L 1151 242.24575681509924 L 1152 240.8847736830017 L 1153 239.62971191792994 L 1154 238.48139663034002 L 1155 237.4405827527595 L 1156 236.5079545434752 L 1157 235.6841251366837 L 1158 234.96963613940105 L 1159 234.3649572753961 L 1160 233.8704860763817 L 1161 233.48654762066698 L 1162 233.2133943194425 L 1163 233.05120575083836 L 1164 233.00008854186487 L 1165 233.06007629831322 L 1166 233.23112958266216 L 1167 233.51313594000518 L 1168 233.90590997198132 L 1169 234.40919345866095 L 1170 235.02265552830636 L 1171 235.74589287489536 L 1172 236.57843002326535 L 1173 237.51971964170303 L 1174 238.56914290177468 L 1175 239.72600988516012 L 1176 240.9895600372231 L 1177 242.35896266701977 L 1178 243.83331749341679 L 1179 245.4116552369595 L 1180 247.09293825710176 L 1181 248.87606123437806 L 1182 250.75985189706927 L 1183 252.74307179188486 L 1184 254.82441709815453 L 1185 257.0025194849941 L 1186 259.27594701088174 L 1187 261.64320506505436 L 1188 264.1027373501033 L 1189 266.65292690512536 L 1190 269.29209716875533 L 1191 272.01851308138 L 1192 274.8303822258139 L 1193 277.7258560056799 L 1194 280.70303086072505 L 1195 283.7599495182712 L 1196 286.8946022799769 L 1197 290.10492834306615 L 1198 293.38881715515356 L 1199 296.7441098017773 L 1200 300.1686004257256 L 1201 303.6600376772249 L 1202 307.2161261940367 L 1203 310.8345281104881 L 1204 314.5128645944465 L 1205 318.2487174112256 L 1206 322.0396305133964 L 1207 325.8831116554571 L 1208 329.7766340323006 L 1209 333.717637940402 L 1210 337.70353246063513 L 1211 341.73169716161016 L 1212 345.79948382241423 L 1213 349.90421817362073 L 1214 354.0432016554244 L 1215 358.21371319174506 L 1216 362.41301097913424 L 1217 366.6383342893084 L 1218 370.88690528412417 L 1219 375.1559308418019 L 1220 379.4426043931967 L 1221 383.7441077669108 L 1222 388.057613042033 L 1223 392.38028440728806 L 1224 396.709280025373 L 1225 401.0417539012557 L 1226 405.374857753206 L 1227 409.7057428853314 L 1228 414.0315620603836 L 1229 418.3494713716077 L 1230 422.6566321123986 L 1231 426.9502126425446 L 1232 431.22739024981917 L 1233 435.4853530057068 L 1234 439.72130161403817 L 1235 443.93245125132074 L 1236 448.11603339755476 L 1237 452.2692976563306 L 1238 456.38951356301146 L 1239 460.47397237981227 L 1240 464.51998887659477 L 1241 468.52490309620816 L 1242 472.48608210321447 L 1243 476.40092171484935 L 1244 480.2668482130798 L 1245 484.08132003663405 L 1246 487.8418294518902 L 1247 491.545904201526 L 1248 495.1911091298457 L 1249 498.7750477837154 L 1250 502.2953639880519 L 1251 505.74974339483884 L 1252 509.1359150046328 L 1253 512.4516526595852 L 1254 515.6947765069692 L 1255 518.8631544322797 L 1256 521.9547034609332 L 1257 524.9673911276778 L 1258 527.8992368127817 L 1259 530.748313044151 L 1260 533.5127467644941 L 1261 536.1907205627247 L 1262 538.7804738687696 L 1263 541.2803041110192 L 1264 543.6885678356368 L 1265 546.0036817870143 L 1266 548.2241239486398 L 1267 550.3484345437166 L 1268 552.375216994854 L 1269 554.3031388422177 L 1270 556.1309326195204 L 1271 557.8573966872907 L 1272 559.4813960228588 L 1273 561.0018629665536 L 1274 562.4177979236068 L 1275 563.7282700213158 L 1276 564.9324177210208 L 1277 566.0294493845057 L 1278 567.0186437944393 L 1279 567.8993506285243 L 1280 568.6709908870348 L 1281 569.3330572734674 L 1282 569.8851145280495 L 1283 570.3267997138919 L 1284 570.6578224555918 L 1285 570.8779651301346 L 1286 570.9870830099635 L 1287 570.9851043581282 L 1288 570.8720304754461 L 1289 570.6479356996474 L 1290 570.3129673565037 L 1291 569.8673456629715 L 1292 569.3113635824164 L 1293 568.6453866320114 L 1294 567.8698526424356 L 1295 566.9852714700339 L 1296 565.9922246616228 L 1297 564.891365072168 L 1298 563.6834164355785 L 1299 562.3691728889069 L 1300 560.949498450261 L 1301 559.425326450778 L 1302 557.7976589210251 L 1303 556.0675659322421 L 1304 554.2361848928447 L 1305 552.3047198006661 L 1306 550.2744404514136 L 1307 548.1466816038758 L 1308 545.9228421024127 L 1309 543.6043839573235 L 1310 541.1928313836779 L 1311 538.6897697992624 L 1312 536.0968447822796 L 1313 533.4157609895079 L 1314 530.6482810356094 L 1315 527.796224334347 L 1316 524.8614659024481 L 1317 521.8459351269257 L 1318 518.7516144966427 L 1319 515.5805382989777 L 1320 512.3347912824254 L 1321 509.01650728603494 L 1322 505.62786783656077 L 1323 502.17110071427766 L 1324 498.64847848837184 L 1325 495.06231702290256 L 1326 491.41497395428405 L 1327 487.7088471413211 L 1328 483.94637308879066 L 1329 480.1300253456169 L 1330 476.2623128787024 L 1331 472.3457784234594 L 1332 468.38299681215767 L 1333 464.37657328115336 L 1334 460.3291417581474 L 1335 456.2433631305637 L 1336 452.1219234962209 L 1337 447.96753239741247 L 1338 443.7829210395915 L 1339 439.570840495796 L 1340 435.33405989803043 L 1341 431.07536461675653 L 1342 426.79755442972737 L 1343 422.50344168133057 L 1344 418.19584943368926 L 1345 413.8776096106972 L 1346 409.5515611362479 L 1347 405.22054806784183 L 1348 400.8874177268382 L 1349 396.5550188265419 L 1350 392.22619959939453 L 1351 387.9038059244618 L 1352 383.5906794564881 L 1353 379.28965575770866 L 1354 375.0035624336861 L 1355 370.73521727435934 L 1356 366.48742640156365 L 1357 362.262982424204 L 1358 358.0646626023295 L 1359 353.8952270212813 L 1360 349.757416777149 L 1361 345.65395217469336 L 1362 341.58753093895587 L 1363 337.56082644169464 L 1364 333.57648594384864 L 1365 329.6371288551505 L 1366 325.74534501206534 L 1367 321.90369297516145 L 1368 318.11469834704235 L 1369 314.38085211195676 L 1370 310.70460899815225 L 1371 307.08838586408086 L 1372 303.5345601094847 L 1373 300.0454681124394 L 1374 296.62340369335004 L 1375 293.2706166069413 L 1376 289.9893110632023 L 1377 286.78164427828847 L 1378 283.6497250563043 L 1379 280.5956124029271 L 1380 277.62131417175584 L 1381 274.7287857443026 L 1382 271.919928744467 L 1383 269.1965897883649 L 1384 266.56055927030894 L 1385 264.01357018576215 L 1386 261.55729699201555 L 1387 259.19335450736185 L 1388 256.9232968494661 L 1389 254.74861641365345 L 1390 252.67074289176415 L 1391 250.6910423322417 L 1392 248.8108162420521 L 1393 247.03130073104367 L 1394 245.3536656992918 L 1395 243.77901406797992 L 1396 242.3083810543066 L 1397 240.9427334909102 L 1398 239.6829691902444 L 1399 238.52991635433588 L 1400 237.48433303029992 L 1401 236.5469066119828 L 1402 235.71825338804882 L 1403 234.9989181368182 L 1404 234.38937376811344 L 1405 233.89002101235786 L 1406 233.50118815712386 L 1407 233.22313083130808 L 1408 233.05603183707498 L 1409 233.0000010296771 L 1410 233.05507524523384 L 1411 233.2212182765144 L 1412 233.49832089674106 L 1413 233.88620093139815 L 1414 234.38460337799782 L 1415 234.99320057372609 L 1416 235.7115924108559 L 1417 236.5393065997898 L 1418 237.47579897955382 L 1419 238.520453875545 L 1420 239.67258450428994 L 1421 240.93143342495657 L 1422 242.29617303731297 L 1423 243.76590612581614 L 1424 245.33966644946221 L 1425 247.01641937702152 L 1426 248.79506256722905 L 1427 250.67442669349592 L 1428 252.65327621265152 L 1429 254.73031017722596 L 1430 256.9041630907228 L 1431 259.17340580533653 L 1432 261.5365464615071 L 1433 263.99203146871247 L 1434 266.5382465268344 L 1435 269.17351768744714 L 1436 271.896112454309 L 1437 274.70424092235703 L 1438 277.596056954431 L 1439 280.5696593949788 L 1440 283.6230933199194 L 1441 286.7543513218675 L 1442 289.96137482984915 L 1443 293.24205546266705 L 1444 296.5942364149995 L 1445 300.01571387534295 L 1446 303.50423847485854 L 1447 307.0575167661593 L 1448 310.6732127310903 L 1449 314.3489493164801 L 1450 318.0823099968859 L 1451 321.8708403632723 L 1452 325.7120497366126 L 1453 329.60341280531753 L 1454 333.5423712854503 L 1455 337.5263356026003 L 1456 341.55268659434597 L 1457 345.61877723215207 L 1458 349.72193436160427 L 1459 353.8594604598019 L 1460 358.02863540878917 L 1461 362.2267182838227 L 1462 366.4509491553366 L 1463 370.6985509033829 L 1464 374.96673104339243 L 1465 379.25268356201775 L 1466 383.55359076188915 L 1467 387.86662511403347 L 1468 392.18895111677483 L 1469 396.5177271598583 L 1470 400.85010739260844 L 1471 405.18324359485626 L 1472 409.51428704944357 L 1473 413.8403904150344 L 1474 418.1587095980414 L 1475 422.4664056223978 L 1476 426.76064649598425 L 1477 431.0386090724448 L 1478 435.29748090720705 L 1479 439.53446210644694 L 1480 443.7467671678221 L 1481 447.9316268117244 L 1482 452.0862898018861 L 1483 456.20802475410665 L 1484 460.29412193193946 L 1485 464.34189502814723 L 1486 468.34868293074237 L 1487 472.31185147248095 L 1488 476.2287951626242 L 1489 480.096938899865 L 1490 483.91373966525845 L 1491 487.6766881940775 L 1492 491.38331062546064 L 1493 495.03117012880153 L 1494 498.61786850577676 L 1495 502.1410477669922 L 1496 505.5983916821792 L 1497 508.98762730295266 L 1498 512.3065264570993 L 1499 515.5529072134436 L 1500 518.7246353162997 L 1501 521.8196255885931 L 1502 524.835843302705 L 1503 527.7713055181612 L 1504 530.6240823852628 L 1505 533.3922984138268 L 1506 536.0741337061753 L 1507 538.6678251535908 L 1508 541.1716675954235 L 1509 543.5840149401147 L 1510 545.9032812473745 L 1511 548.1279417708265 L 1512 550.2565339604098 L 1513 552.2876584239036 L 1514 554.2199798469194 L 1515 556.0522278707754 L 1516 557.7831979276598 L 1517 559.4117520325498 L 1518 560.9368195313477 L 1519 562.3573978047618 L 1520 563.6725529274499 L 1521 564.8814202820108 L 1522 565.9832051274025 L 1523 566.9771831214279 L 1524 567.8627007969365 L 1525 568.639175991429 L 1526 569.306098229789 L 1527 569.8630290598792 L 1528 570.3096023407948 L 1529 570.645524483571 L 1530 570.8705746441988 L 1531 570.9846048688116 L 1532 570.9875401909551 L 1533 570.8793786808715 L 1534 570.6601914467689 L 1535 570.3301225880722 L 1536 569.8893891006887 L 1537 569.3382807343495 L 1538 568.6771598021198 L 1539 567.9064609422061" stroke-linecap="round" stroke-linejoin="round" stroke-miterlimit="10" stroke-width="14"/></g></svg>